<?xml version="1.0" encoding="UTF-8" standalone="no"?>
<svg
   width="256px"
   height="256px"
   viewBox="0 0 256 256"
   version="1.1"
   preserveAspectRatio="xMidYMid"
   id="svg42"
   sodipodi:docname="cypress_and_playwright_icon.svg"
   inkscape:version="1.1.2 (0a00cf5339, 2022-02-04)"
   xmlns:inkscape="http://www.inkscape.org/namespaces/inkscape"
   xmlns:sodipodi="http://sodipodi.sourceforge.net/DTD/sodipodi-0.dtd"
   xmlns="http://www.w3.org/2000/svg"
   xmlns:svg="http://www.w3.org/2000/svg"
   xmlns:rdf="http://www.w3.org/1999/02/22-rdf-syntax-ns#"
   xmlns:cc="http://creativecommons.org/ns#"
   xmlns:dc="http://purl.org/dc/elements/1.1/">
  <sodipodi:namedview
     id="namedview44"
     pagecolor="#ffffff"
     bordercolor="#111111"
     borderopacity="1"
     inkscape:pageshadow="0"
     inkscape:pageopacity="0"
     inkscape:pagecheckerboard="1"
     showgrid="false"
     inkscape:snap-center="true"
     inkscape:snap-object-midpoints="true"
     inkscape:snap-midpoints="true"
     inkscape:snap-smooth-nodes="true"
     inkscape:snap-intersection-paths="true"
     inkscape:object-paths="false"
     inkscape:snap-bbox="false"
     inkscape:bbox-nodes="true"
     inkscape:snap-bbox-edge-midpoints="false"
     inkscape:zoom="1.1490485"
     inkscape:cx="59.614542"
     inkscape:cy="152.73507"
     inkscape:window-width="1920"
     inkscape:window-height="1005"
     inkscape:window-x="0"
     inkscape:window-y="0"
     inkscape:window-maximized="1"
     inkscape:current-layer="svg42"
     inkscape:snap-nodes="false"
     inkscape:snap-others="false" />
  <title
     id="title2">Cypress</title>
  <defs
     id="defs26">
    <linearGradient
       x1="10.583074"
       y1="243.1014"
       x2="113.96453"
       y2="261.40687"
       id="cypressGradient-1"
       gradientTransform="scale(1.2279787,0.81434637)"
       gradientUnits="userSpaceOnUse">
      <stop
         stop-color="#315C55"
         offset="0%"
         id="stop4" />
      <stop
         stop-color="#09293F"
         offset="100%"
         id="stop6" />
    </linearGradient>
    <linearGradient
       x1="63.139931"
       y1="38.21914"
       x2="58.142524"
       y2="122.80245"
       id="cypressGradient-2"
       gradientTransform="scale(0.75844433,1.3184883)"
       gradientUnits="userSpaceOnUse">
      <stop
         stop-color="#4FB38D"
         offset="0%"
         id="stop9" />
      <stop
         stop-color="#315C55"
         offset="100%"
         id="stop11" />
    </linearGradient>
    <linearGradient
       x1="69.991997"
       y1="56.053464"
       x2="133.7925"
       y2="61.613414"
       id="cypressGradient-3"
       gradientTransform="scale(1.4503287,0.68949886)"
       gradientUnits="userSpaceOnUse">
      <stop
         stop-color="#4FB38D"
         offset="0%"
         id="stop14" />
      <stop
         stop-color="#97DEC0"
         offset="100%"
         id="stop16" />
    </linearGradient>
    <linearGradient
       x1="329.99536"
       y1="81.743664"
       x2="312.15901"
       y2="156.56706"
       id="cypressGradient-4"
       gradientTransform="scale(0.66807652,1.4968345)"
       gradientUnits="userSpaceOnUse">
      <stop
         stop-color="#97DEC0"
         offset="0%"
         id="stop19" />
      <stop
         stop-color="#FFFFF0"
         stop-opacity="0"
         offset="100%"
         id="stop21" />
      <stop
         stop-color="#FFFFF0"
         stop-opacity="0"
         offset="100%"
         id="stop23" />
    </linearGradient>
  </defs>
  <g
     id="g40"
     transform="matrix(0.66924831,0,0,0.66924831,17.218074,69.860673)">
    <path
       d="m 141.6512,223.94347 -4.33514,10.52586 c -0.86128,2.0832 -2.83054,3.4944 -5.04648,3.5904 -1.46313,0.0549 -2.94007,0.096 -4.43083,0.096 C 76.814553,238.12853 31.670328,202.04267 20.483519,152.32 l -17.3684234,3.93333 c 6.2772059,27.89014 22.0318534,53.20374 44.3645344,71.29494 22.592448,18.296 51.052051,28.3968 80.16772,28.45173 0.0409,0 0.25998,0 0.25998,0 1.70928,0 3.40526,-0.0411 5.10072,-0.10933 9.13546,-0.384 17.30012,-6.1264 20.78779,-14.63734 l 5.66161,-13.76 z"
       fill="url(#cypressGradient-1)"
       id="path28"
       style="fill:url(#cypressGradient-1)" />
    <path
       d="M 4.5404735,161.9136 C 1.5317889,150.92213 0,139.5056 0,128.00693 0,75.515733 32.863101,27.52 81.781825,8.59312 l 6.413911,16.65184 C 46.087592,41.54048 17.805987,82.834133 17.805987,128.00693 c 0,9.9088 1.312821,19.7216 3.897578,29.17814 z"
       fill="url(#cypressGradient-2)"
       id="path30"
       style="fill:url(#cypressGradient-2)" />
    <path
       d="M 225.69289,77.2976 C 206.65584,40.636 169.18412,17.85792 127.92434,17.85792 c -14.6195,0 -28.828571,2.823253 -42.203999,8.373867 L 78.896522,9.7443733 C 94.445897,3.2892373 110.93896,0 127.92434,0 c 47.93367,0 91.45034,26.451093 113.56408,69.046933 z"
       fill="url(#cypressGradient-3)"
       id="path32"
       style="fill:url(#cypressGradient-3)" />
    <path
       d="m 89.72744,101.5968 c 10.32531,0 18.73613,5.5232 23.05744,15.15787 l 0.34185,0.75413 17.34106,-5.9072 -0.3695,-0.89067 C 123.38346,94.3056 107.91649,84.1088 89.72744,84.1088 c -12.786884,0 -23.18078,4.112 -31.769168,12.554133 -8.533575,8.387737 -12.85499,18.940797 -12.85499,31.371197 0,12.32107 4.321415,22.8192 12.85499,31.20694 8.588388,8.44266 18.982284,12.55413 31.769168,12.55413 18.18905,0 33.65602,-10.1968 40.37085,-26.58827 l 0.3695,-0.89066 -17.36817,-5.92107 -0.32857,0.78133 c -3.86993,9.4704 -12.48596,15.13067 -23.04361,15.13067 -7.19332,0 -13.265376,-2.5216 -18.079531,-7.4832 -4.868383,-5.02987 -7.329956,-11.34773 -7.329956,-18.776 0,-7.4832 2.406812,-13.67787 7.329956,-18.9408 4.800332,-4.98827 10.886211,-7.5104 18.079531,-7.5104 z"
       fill="#09293f"
       id="path34" />
    <polygon
       fill="#09293f"
       points="128.4023,85.7264 163.28964,171.34293 138.46763,231.728 156.26007,235.27787 217.56917,85.7264 198.34073,85.7264 173.62877,148.45493 148.75201,85.7264 "
       id="polygon36" />
    <path
       d="M 241.48842,69.046933 C 250.49143,86.585413 256,107.18515 256,128.2708 c 0,49.19995 -27.6712,91.91656 -68.25325,113.34297 l -8.76786,-15.5478 c 35.19098,-18.35197 59.22722,-55.25774 59.22722,-97.79517 0,-18.45886 -4.51342,-35.691234 -12.51322,-50.9732 0,0 15.79553,-8.250667 15.79553,-8.250667 z"
       fill="url(#cypressGradient-4)"
       id="path38"
       style="fill:url(#cypressGradient-4)" />
  </g>
  <metadata
     id="metadata861">
    <rdf:RDF>
      <cc:Work
         rdf:about="">
        <dc:title>Cypress</dc:title>
      </cc:Work>
    </rdf:RDF>
  </metadata>
  <g
     id="g1001"
     transform="matrix(0.59765624,0,0,0.59765624,90.397253,13.671871)">
    <path
       d="m 84.380258,108.35161 c -9.556409,2.71207 -15.825994,7.46729 -19.95603,12.21879 3.955757,-3.46184 9.254573,-6.63891 16.402227,-8.66499 7.310808,-2.07206 13.547762,-2.05723 18.701222,-1.06273 v -4.02992 c -4.396274,-0.40195 -9.436267,-0.0816 -15.147419,1.53885 z M 63.987419,74.474785 28.496478,83.825026 c 0,0 0.646834,0.913665 1.844537,2.132875 l 30.091859,-7.929313 c 0,0 -0.426427,5.494602 -4.129516,10.410004 7.004745,-5.299557 7.684061,-13.963807 7.684061,-13.963807 z M 93.695643,157.8846 C 43.750467,171.33669 17.3261,113.45538 9.3258895,83.412689 5.6296968,69.545292 4.0161722,59.042587 3.5861115,52.264997 3.5399091,51.561208 3.5612675,50.967919 3.6110297,50.424317 1.020135,50.580797 -0.22028475,51.927564 0.03208571,55.819542 0.46214634,62.593424 2.075671,73.095387 5.7718637,86.967234 13.768515,117.00548 40.196441,174.88679 90.141839,161.43469 c 10.871291,-2.92862 19.038651,-8.26304 25.169561,-15.07252 -5.65108,5.10378 -12.72383,9.12331 -21.615757,11.52243 z M 103.08148,39.05096 v 3.554545 h 19.59042 c -0.40196,-1.258515 -0.80688,-2.392439 -1.20883,-3.554545 z"
       fill="#2d4552"
       id="path987" />
    <path
       d="m 127.05037,68.325341 c 8.81035,2.502198 13.46989,8.679082 15.93279,14.145502 l 9.82339,2.789943 c 0,0 -1.3401,-19.131357 -18.64486,-24.04676 -16.18865,-4.599476 -26.15072,8.995009 -27.36251,10.754111 4.70923,-3.355051 11.5862,-6.101981 20.25119,-3.642796 z m 78.19628,14.233753 c -16.20347,-4.620241 -26.16184,9.002425 -27.35583,10.737055 4.71294,-3.351344 11.5862,-6.099015 20.24748,-3.628706 8.79626,2.505906 13.4521,8.675373 15.92241,14.145497 l 9.83748,2.80033 c 0,0 -1.3616,-19.135065 -18.65154,-24.054176 z m -9.75961,50.442946 -81.71819,-22.84535 c 0,0 0.88474,4.48527 4.2791,10.29283 l 68.80302,19.23444 c 5.66443,-3.27718 8.63607,-6.68192 8.63607,-6.68192 z m -56.65543,49.17405 C 74.126734,164.82831 81.949255,82.385557 92.419329,43.318935 96.730318,27.219287 101.16219,15.252863 104.83762,7.2313679 102.64467,6.7799488 100.82846,7.9350832 99.033764,11.585074 95.131403,19.49985 90.141098,32.386837 85.311722,50.427284 74.844615,89.493164 67.022094,171.93295 131.72401,189.28073 c 30.4973,8.17033 54.25557,-4.24721 71.966,-23.74863 -16.81086,15.22603 -38.27384,23.76272 -64.8584,16.64399 z"
       fill="#2d4552"
       id="path989" />
    <path
       d="m 103.08148,138.56487 v -16.63658 l -46.223619,13.10725 c 0,0 3.415567,-19.84553 27.522397,-26.68393 7.310808,-2.07206 13.548504,-2.05797 18.701222,-1.06273 V 39.05096 h 23.14422 c -2.52,-7.786923 -4.95768,-13.782112 -7.00527,-17.947745 -3.38694,-6.894764 -6.85916,-2.324211 -14.74175,4.268717 C 98.926972,30.009972 84.895678,39.904555 63.781251,45.5942 42.666527,51.287553 25.596406,49.777632 18.474115,48.544332 8.3769974,46.802286 3.0956837,44.584867 3.5897454,52.264997 4.0197319,59.038879 5.6333307,69.541584 9.3295234,83.412689 17.3261,113.45167 43.754027,171.33298 93.699351,157.88089 106.74578,154.36565 115.95438,147.41749 122.33743,138.56116 H 103.08148 Z M 28.492993,83.825026 63.987419,74.474785 c 0,0 -1.034548,13.654555 -14.340768,17.162378 -13.309928,3.504116 -21.153658,-7.812137 -21.153658,-7.812137 z"
       fill="#e2574c"
       id="path991" />
    <path
       d="M 236.66429,39.840035 C 227.4379,41.45749 205.30301,43.472449 177.94792,36.140134 150.58542,28.812269 132.43076,15.996032 125.23787,9.9719198 115.04145,1.4315193 110.55619,-4.5037476 106.14211,4.473833 102.23975,12.392244 97.249446,25.27923 92.419329,43.319677 81.952963,82.385557 74.130442,164.82534 138.83161,182.17312 c 64.68783,17.33295 99.12605,-57.97772 109.59316,-97.047308 4.83012,-18.036738 6.94816,-31.695001 7.53107,-40.50164 0.66448,-9.976161 -6.18801,-7.080167 -19.29155,-4.784137 z M 106.66791,72.160957 c 0,0 10.19642,-15.858625 27.49007,-10.943223 17.30477,4.915403 18.64486,24.04676 18.64486,24.04676 z m 42.21477,71.162833 c -30.41869,-8.91046 -35.11013,-33.1671 -35.11013,-33.1671 l 81.71449,22.84609 c 0,-0.004 -16.49418,19.12023 -46.60436,10.32101 z m 28.89097,-49.849654 c 0,0 10.18232,-15.847501 27.473,-10.918008 17.28994,4.922819 18.65154,24.054172 18.65154,24.054172 z"
       fill="#2ead33"
       id="path993" />
    <path
       d="m 86.928436,126.50923 -30.070575,8.5226 c 0,0 3.266503,-18.60852 25.418445,-25.98311 L 65.248901,45.147008 63.777543,45.5942 C 42.662968,51.288295 25.592846,49.777632 18.470555,48.544332 8.3735118,46.803027 3.0921981,44.584867 3.5861857,52.265739 4.0162463,59.03962 5.6297709,69.541584 9.3259637,83.413431 17.322614,113.45167 43.750541,171.33298 93.695643,157.88089 L 95.167,157.41886 Z M 28.492993,83.825767 63.987419,74.474785 c 0,0 -1.034548,13.654555 -14.340768,17.162378 -13.309854,3.504116 -21.153658,-7.811396 -21.153658,-7.811396 z"
       fill="#d65348"
       id="path995" />
    <path
       d="m 150.25466,143.65752 -1.37569,-0.33447 c -30.41869,-8.90972 -35.11012,-33.16636 -35.11012,-33.16636 l 42.13689,11.77828 22.30842,-85.723641 -0.26994,-0.07119 C 150.58171,28.812269 132.4278,15.996032 125.23416,9.9719198 115.03775,1.4315193 110.55248,-4.5037476 106.1384,4.473833 102.23975,12.392244 97.249446,25.27923 92.419329,43.319677 81.952963,82.385557 74.130442,164.82534 138.83161,182.17238 l 1.32601,0.29887 z M 106.66791,72.160957 c 0,0 10.19642,-15.858625 27.49007,-10.943223 17.30477,4.915403 18.64486,24.04676 18.64486,24.04676 z"
       fill="#1d8d22"
       id="path997" />
    <path
       d="m 88.460606,126.07242 -8.064286,2.28861 c 1.9052,10.74002 5.263218,21.04694 10.533853,30.15245 0.917373,-0.20246 1.827331,-0.37674 2.761762,-0.63259 2.448802,-0.66078 4.719617,-1.47878 6.905885,-2.37094 -5.889136,-8.73915 -9.784822,-18.8043 -12.137214,-29.43753 z M 85.311722,50.428025 c -4.144126,15.467054 -7.851443,37.729496 -6.830985,60.059425 1.82659,-0.79278 3.756263,-1.53143 5.899521,-2.13955 l 1.492864,-0.33373 c -1.819915,-23.851711 2.114335,-48.157293 6.546207,-64.694493 1.123542,-4.183432 2.25005,-8.074668 3.37285,-11.703374 -1.808791,1.150981 -3.756263,2.330885 -5.974424,3.546387 -1.495831,4.617274 -3.006494,9.663942 -4.506033,15.265335 z"
       fill="#c04b41"
       id="path999" />
  </g>
</svg>
