<?xml version="1.0" encoding="UTF-8" standalone="no"?>
<svg
   height="241.414"
   width="256"
   version="1.1"
   id="svg18"
   sodipodi:docname="gdunit4_icon.svg"
   inkscape:version="1.2.2 (b0a8486541, 2022-12-01)"
   xml:space="preserve"
   inkscape:export-filename="gdunit4_icon.png"
   inkscape:export-xdpi="96"
   inkscape:export-ydpi="96"
   xmlns:inkscape="http://www.inkscape.org/namespaces/inkscape"
   xmlns:sodipodi="http://sodipodi.sourceforge.net/DTD/sodipodi-0.dtd"
   xmlns="http://www.w3.org/2000/svg"
   xmlns:svg="http://www.w3.org/2000/svg"><defs
     id="defs22" /><sodipodi:namedview
     id="namedview20"
     pagecolor="#ffffff"
     bordercolor="#666666"
     borderopacity="1.0"
     inkscape:pageshadow="2"
     inkscape:pageopacity="0.0"
     inkscape:pagecheckerboard="0"
     showgrid="false"
     inkscape:zoom="0.80957031"
     inkscape:cx="48.791315"
     inkscape:cy="37.056695"
     inkscape:window-width="1920"
     inkscape:window-height="1003"
     inkscape:window-x="0"
     inkscape:window-y="0"
     inkscape:window-maximized="1"
     inkscape:current-layer="svg18"
     width="500px"
     inkscape:showpageshadow="2"
     inkscape:deskcolor="#d1d1d1" /><path
     d="m 240.34223,164.49041 c 0,0 -0.3732,-2.28972 -0.59138,-2.26905 l -41.54802,4.00873 c -3.30598,0.31923 -5.87359,2.95575 -6.10555,6.26861 l -1.14142,16.35992 -32.14339,2.29317 -2.18638,-14.82693 c -0.48688,-3.29794 -3.36683,-5.78402 -6.70037,-5.78402 H 106.0742 c -3.33239,0 -6.212342,2.48608 -6.699224,5.78402 L 97.187452,191.15179 65.044056,188.85862 63.90264,172.4987 c -0.231958,-3.31401 -2.799572,-5.95052 -6.105546,-6.26975 l -41.568695,-4.00759 c -0.214734,-0.0207 -0.372052,2.27135 -0.586785,2.27135 l -0.05627,8.99124 35.204781,5.67722 1.152899,16.50576 c 0.233107,3.34157 2.92933,6.04354 6.273199,6.28353 l 44.268367,3.15785 c 0.16765,0.0115 0.33301,0.0184 0.49836,0.0184 3.32665,0 6.20201,-2.48723 6.68889,-5.78517 l 2.24953,-15.2564 h 32.15833 l 2.24953,15.2564 c 0.48573,3.29679 3.36454,5.78402 6.69577,5.78402 0.16306,0 0.32612,-0.006 0.48574,-0.0172 l 44.2741,-3.15785 c 3.34272,-0.23999 6.04009,-2.94196 6.2732,-6.28353 l 1.15175,-16.50576 35.18986,-5.70249 z"
     fill="#ffffff"
     id="path2"
     style="stroke-width:1.14831" /><path
     d="m 15.641081,96.693194 v 54.560636 6.93003 6.3065 c 0.124017,10e-4 0.248034,0.006 0.370903,0.0172 l 41.564102,4.00759 c 2.177189,0.21014 3.883573,1.96246 4.035149,4.14424 l 1.28151,18.34764 36.25663,2.58714 2.497565,-16.93408 c 0.32382,-2.19556 2.20705,-3.82271 4.42787,-3.82271 h 43.85153 c 2.21968,0 4.1029,1.62715 4.42672,3.82271 l 2.49757,16.93408 36.25778,-2.58714 1.28036,-18.34764 c 0.15272,-2.18178 1.85796,-3.93295 4.03515,-4.14424 l 41.54802,-4.00759 c 0.12287,-0.0115 0.24574,-0.0161 0.36976,-0.0172 v -5.40967 l 0.0172,-0.006 V 96.693194 C 246.21175,89.325118 251.75383,81.197707 256,74.359781 249.51092,63.313072 241.56005,53.441081 233.06143,44.29482 c -7.88197,3.967399 -15.53773,8.461871 -22.76862,13.244567 -3.61831,-3.596496 -7.69365,-6.538457 -11.69665,-9.613622 -3.93295,-3.158991 -8.36541,-5.475125 -12.56936,-8.173645 1.25165,-9.320804 1.87059,-18.496922 2.11977,-28.073798 C 177.29967,6.2192732 165.73278,2.5998111 154.03268,4.51675e-5 149.36137,7.8510167 145.08967,16.353078 141.36916,24.66452 136.95737,23.927308 132.5249,23.654011 128.0867,23.601189 v -0.0069 c -0.031,0 -0.0597,0.0069 -0.0861,0.0069 -0.0276,0 -0.0563,-0.0069 -0.0838,-0.0069 v 0.0069 c -4.44624,0.05282 -8.87526,0.326119 -13.2882,1.063331 C 110.91033,16.353078 106.64093,7.8510167 101.96273,4.51675e-5 90.268372,2.5998111 78.700332,6.2192732 67.854578,11.678322 c 0.248034,9.576876 0.866971,18.752994 2.12207,28.073798 -4.211988,2.69852 -8.63871,5.014654 -12.572808,8.173645 -3.997255,3.075165 -8.079484,6.017126 -11.698947,9.613622 C 38.474007,52.756691 30.820545,48.262219 22.936272,44.29482 14.437656,53.441081 6.4913748,63.313072 -1.8365e-6,74.359781 5.1015311,82.367717 10.57357,90.416422 15.641081,96.693194 Z"
     fill="#478cbf"
     id="path4"
     style="stroke-width:1.14831;fill:#7d59dc;fill-opacity:1" /><path
     d="m 203.05419,177.06171 -1.28725,18.44525 c -0.15502,2.22312 -1.92341,3.99266 -4.14654,4.15227 l -44.27295,3.15899 c -0.10794,0.008 -0.21589,0.0115 -0.32268,0.0115 -2.20015,0 -4.0983,-1.61452 -4.42327,-3.82386 l -2.53891,-17.21771 h -36.12457 l -2.53891,17.21771 c -0.34105,2.31728 -2.41259,3.98347 -4.74595,3.81237 l -44.272958,-3.15899 c -2.223121,-0.15961 -3.991513,-1.92915 -4.146534,-4.15227 l -1.287252,-18.44525 -37.373932,-3.60339 c 0.01722,4.01678 0.0689,8.41709 0.0689,9.29325 0,39.47189 50.071905,58.44421 112.282556,58.66238 h 0.0758 0.0769 c 62.21065,-0.21817 112.26533,-19.19049 112.26533,-58.66238 0,-0.89224 0.054,-5.27417 0.0723,-9.29325 z"
     fill="#478cbf"
     id="path6"
     style="stroke-width:1.14831;fill:#7d59dc;fill-opacity:1" /><path
     d="m 94.128231,124.21432 c 0,13.83939 -11.213213,25.05031 -25.04801,25.05031 -13.827907,0 -25.044564,-11.21092 -25.044564,-25.05031 0,-13.8302 11.216657,-25.035378 25.044564,-25.035378 13.834797,0 25.04801,11.205178 25.04801,25.035378"
     fill="#ffffff"
     id="path8"
     style="stroke-width:1.14831" /><path
     d="m 88.101202,125.70004 c 0,9.17956 -7.439878,16.61944 -16.62633,16.61944 -9.181859,0 -16.62633,-7.43988 -16.62633,-16.61944 0,-9.17956 7.444471,-16.62633 16.62633,-16.62633 9.186452,0 16.62633,7.44677 16.62633,16.62633"
     fill="#414042"
     id="path10"
     style="stroke-width:1.14831;fill:#414042;fill-opacity:1" /><path
     d="m 127.99817,151.54356 c -4.45313,0 -8.06226,-3.28186 -8.06226,-7.32734 v -23.05915 c 0,-4.04204 3.60913,-7.32734 8.06226,-7.32734 4.45313,0 8.0703,3.2853 8.0703,7.32734 v 23.05915 c 0,4.04548 -3.61717,7.32734 -8.0703,7.32734"
     fill="#ffffff"
     id="path12"
     style="stroke-width:1.14831" /><path
     d="m 161.87229,124.21432 c 0,13.83939 11.21321,25.05031 25.05031,25.05031 13.82675,0 25.04226,-11.21092 25.04226,-25.05031 0,-13.8302 -11.21551,-25.035378 -25.04226,-25.035378 -13.8371,0 -25.05031,11.205178 -25.05031,25.035378"
     fill="#ffffff"
     id="path14"
     style="stroke-width:1.14831" /><path
     id="path16"
     style="stroke-width:1.14831;fill:#6cff0d;fill-opacity:1"
     d="M 184.51758 109.07422 C 175.33803 109.07422 167.90039 116.51967 167.90039 125.69922 C 167.90039 134.87877 175.33803 142.32031 184.51758 142.32031 C 193.70632 142.32031 201.14453 134.87877 201.14453 125.69922 C 201.14453 116.51967 193.70632 109.07422 184.51758 109.07422 z M 193.33008 115.78711 L 197.09766 119.55469 L 184.8125 131.83984 L 181.04492 135.60742 L 177.27734 131.83984 L 171.94922 126.51172 L 175.7168 122.74609 L 181.04492 128.07227 L 193.33008 115.78711 z " /><g
     id="g2912"><path
       id="path1833"
       style="fill:#000080;fill-opacity:1;stroke-width:2.15231"
       d="m 186.91016,93.064453 c -17.20554,0 -31.14649,13.958517 -31.14649,31.164067 0,17.20554 13.94095,31.15039 31.14649,31.15039 17.22276,0 31.16406,-13.94485 31.16406,-31.15039 0,-17.20555 -13.9413,-31.164067 -31.16406,-31.164067 z m 0.002,6.115235 c 13.8431,0 25.04687,11.217632 25.04687,25.046872 0,13.82926 -11.20377,25.03711 -25.04687,25.03711 -13.82925,0 -25.03516,-11.20785 -25.03516,-25.03711 0,-13.82924 11.20591,-25.046872 25.03516,-25.046872 z" /><g
       id="g2900"><rect
         style="fill:#000080;fill-opacity:1;stroke-width:0.912817"
         id="rect2512"
         width="15.845673"
         height="13.169443"
         x="178.98712"
         y="86.009499"
         ry="3.0313516" /><rect
         style="fill:#000080;fill-opacity:1;stroke-width:0.912817"
         id="rect2561"
         width="15.845673"
         height="13.169443"
         x="116.29895"
         y="-225.13431"
         ry="3.0313516"
         transform="rotate(90)" /><rect
         style="fill:#000080;fill-opacity:1;stroke-width:0.912817"
         id="rect2563"
         width="15.845673"
         height="13.169443"
         x="178.99977"
         y="149.26463"
         ry="3.0313516" /><rect
         style="fill:#000080;fill-opacity:1;stroke-width:0.912817"
         id="rect2565"
         width="15.845673"
         height="13.169443"
         x="116.29896"
         y="-161.87228"
         ry="3.0313516"
         transform="rotate(90)" /><rect
         style="fill:#000080;fill-opacity:1;stroke-width:0.912817"
         id="rect2567"
         width="15.845673"
         height="13.169443"
         x="-51.934006"
         y="-193.80009"
         ry="3.0313516"
         transform="rotate(135)" /><rect
         style="fill:#000080;fill-opacity:1;stroke-width:0.912817"
         id="rect2685"
         width="15.845673"
         height="13.169443"
         x="-229.97935"
         y="71.122337"
         ry="3.0313516"
         transform="rotate(-135)" /><rect
         style="fill:#000080;fill-opacity:1;stroke-width:0.912817"
         id="rect2687"
         width="15.845673"
         height="13.169443"
         x="-227.61015"
         y="4.9545088"
         ry="3.0313516"
         transform="rotate(-135)" /><rect
         style="fill:#000080;fill-opacity:1;stroke-width:0.912817"
         id="rect2689"
         width="15.845673"
         height="13.169443"
         x="-52.122772"
         y="-258.93274"
         ry="3.0313516"
         transform="rotate(135)" /></g></g><g
     id="g2934"
     transform="matrix(0.67853556,0,0,0.67853556,103.23837,-17.568625)"><path
       id="path2914"
       style="fill:#000080;fill-opacity:1;stroke-width:2.15231"
       d="m 186.91016,93.064453 c -17.20554,0 -31.14649,13.958517 -31.14649,31.164067 0,17.20554 13.94095,31.15039 31.14649,31.15039 17.22276,0 31.16406,-13.94485 31.16406,-31.15039 0,-17.20555 -13.9413,-31.164067 -31.16406,-31.164067 z m 0.002,6.115235 c 13.8431,0 25.04687,11.217632 25.04687,25.046872 0,13.82926 -11.20377,25.03711 -25.04687,25.03711 -13.82925,0 -25.03516,-11.20785 -25.03516,-25.03711 0,-13.82924 11.20591,-25.046872 25.03516,-25.046872 z" /><g
       id="g2932"><rect
         style="fill:#000080;fill-opacity:1;stroke-width:0.912817"
         id="rect2916"
         width="15.845673"
         height="13.169443"
         x="178.98712"
         y="86.009499"
         ry="3.0313516" /><rect
         style="fill:#000080;fill-opacity:1;stroke-width:0.912817"
         id="rect2918"
         width="15.845673"
         height="13.169443"
         x="116.29895"
         y="-225.13431"
         ry="3.0313516"
         transform="rotate(90)" /><rect
         style="fill:#000080;fill-opacity:1;stroke-width:0.912817"
         id="rect2920"
         width="15.845673"
         height="13.169443"
         x="178.99977"
         y="149.26463"
         ry="3.0313516" /><rect
         style="fill:#000080;fill-opacity:1;stroke-width:0.912817"
         id="rect2922"
         width="15.845673"
         height="13.169443"
         x="116.29896"
         y="-161.87228"
         ry="3.0313516"
         transform="rotate(90)" /><rect
         style="fill:#000080;fill-opacity:1;stroke-width:0.912817"
         id="rect2924"
         width="15.845673"
         height="13.169443"
         x="-51.934006"
         y="-193.80009"
         ry="3.0313516"
         transform="rotate(135)" /><rect
         style="fill:#000080;fill-opacity:1;stroke-width:0.912817"
         id="rect2926"
         width="15.845673"
         height="13.169443"
         x="-229.97935"
         y="71.122337"
         ry="3.0313516"
         transform="rotate(-135)" /><rect
         style="fill:#000080;fill-opacity:1;stroke-width:0.912817"
         id="rect2928"
         width="15.845673"
         height="13.169443"
         x="-227.61015"
         y="4.9545088"
         ry="3.0313516"
         transform="rotate(-135)" /><rect
         style="fill:#000080;fill-opacity:1;stroke-width:0.912817"
         id="rect2930"
         width="15.845673"
         height="13.169443"
         x="-52.122772"
         y="-258.93274"
         ry="3.0313516"
         transform="rotate(135)" /></g></g><path
     id="path2936"
     style="fill:#ff3a3a;fill-opacity:1;stroke-width:1.17406"
     d="M 230.06445 49.724609 C 220.67902 49.724609 213.07422 57.339184 213.07422 66.724609 C 213.07422 76.110037 220.67902 83.716797 230.06445 83.716797 C 239.45927 83.716797 247.06445 76.110037 247.06445 66.724609 C 247.06445 57.339184 239.45927 49.724609 230.06445 49.724609 z M 222.67773 55.779297 L 230.07031 63.171875 L 237.46289 55.779297 L 241.01172 59.328125 L 233.61914 66.720703 L 241.01172 74.113281 L 237.46289 77.662109 L 230.07031 70.269531 L 222.67773 77.662109 L 219.12891 74.113281 L 226.52148 66.720703 L 219.12891 59.328125 L 222.67773 55.779297 z " /></svg>
