<?xml version="1.0" encoding="UTF-8" standalone="no"?>
<svg
   width="256px"
   height="256px"
   viewBox="0 0 256 256"
   version="1.1"
   preserveAspectRatio="xMidYMid"
   id="svg10"
   sodipodi:docname="javascript_icon.svg"
   inkscape:version="1.1.2 (0a00cf5339, 2022-02-04)"
   xmlns:inkscape="http://www.inkscape.org/namespaces/inkscape"
   xmlns:sodipodi="http://sodipodi.sourceforge.net/DTD/sodipodi-0.dtd"
   xmlns="http://www.w3.org/2000/svg"
   xmlns:svg="http://www.w3.org/2000/svg">
  <defs
     id="defs14" />
  <sodipodi:namedview
     id="namedview12"
     pagecolor="#ffffff"
     bordercolor="#111111"
     borderopacity="1"
     inkscape:pageshadow="0"
     inkscape:pageopacity="0"
     inkscape:pagecheckerboard="1"
     showgrid="false"
     inkscape:snap-intersection-paths="true"
     inkscape:snap-smooth-nodes="true"
     inkscape:snap-object-midpoints="true"
     inkscape:snap-center="true"
     inkscape:snap-midpoints="true"
     inkscape:zoom="1.625"
     inkscape:cx="49.538462"
     inkscape:cy="98.153846"
     inkscape:window-width="1920"
     inkscape:window-height="1005"
     inkscape:window-x="0"
     inkscape:window-y="0"
     inkscape:window-maximized="1"
     inkscape:current-layer="svg10" />
  <g
     id="g8"
     transform="matrix(0.6,0,0,0.6,0,102)">
    <path
       d="M 0,0 H 256 V 256 H 0 Z"
       fill="#f7df1e"
       id="path2" />
    <path
       d="m 67.311746,213.93229 19.590908,-11.85605 c 3.779454,6.70111 7.217575,12.3709 15.464436,12.3709 7.90511,0 12.88899,-3.09232 12.88899,-15.12026 v -81.79809 h 24.05749 V 199.667 c 0,24.91733 -14.60581,36.25894 -35.91517,36.25894 -19.245105,0 -30.416457,-9.96734 -36.08706,-21.99568"
       fill="#000000"
       id="path4" />
    <path
       d="m 152.38095,211.35441 19.58847,-11.34161 c 5.15657,8.42118 11.85849,14.60703 23.71495,14.60703 9.96815,0 16.32467,-4.98387 16.32467,-11.85767 0,-8.24848 -6.52962,-11.17014 -17.52787,-15.98009 l -6.01275,-2.57951 c -17.35721,-7.38783 -28.87111,-16.66722 -28.87111,-36.25772 0,-18.04353 13.7472,-31.79154 35.22844,-31.79154 15.29417,0 26.29201,5.32764 34.19591,19.24713 l -18.73107,12.02834 c -4.12444,-7.38864 -8.59103,-10.30948 -15.46443,-10.30948 -7.04569,0 -11.51391,4.46781 -11.51391,10.30948 0,7.21758 4.46822,10.13964 14.77771,14.60785 l 6.01396,2.57747 c 20.44953,8.76455 31.96343,17.69936 31.96343,37.8043 0,21.65353 -17.01221,33.50958 -39.86692,33.50958 -22.33945,0 -36.7746,-10.65366 -43.81907,-24.57356"
       fill="#000000"
       id="path6" />
  </g>
  <g
     id="g837"
     transform="matrix(0.59765625,0,0,0.59765625,103,0)">
    <path
       d="m 20,0 h 216 c 11.04569,0 20,8.954305 20,20 v 216 c 0,11.04569 -8.95431,20 -20,20 H 20 C 8.954305,256 0,247.04569 0,236 V 20 C 0,8.954305 8.954305,0 20,0 Z"
       fill="#3178c6"
       id="path833" />
    <path
       d="m 150.518,200.475 v 27.62 c 4.492,2.302 9.805,4.028 15.938,5.179 6.133,1.151 12.597,1.726 19.393,1.726 6.622,0 12.914,-0.633 18.874,-1.899 5.96,-1.266 11.187,-3.352 15.678,-6.257 4.492,-2.906 8.048,-6.704 10.669,-11.394 2.62,-4.689 3.93,-10.486 3.93,-17.391 0,-5.006 -0.749,-9.394 -2.246,-13.163 -1.497,-3.769 -3.657,-7.121 -6.479,-10.055 -2.821,-2.935 -6.205,-5.567 -10.149,-7.898 -3.945,-2.33 -8.394,-4.531 -13.347,-6.602 -3.628,-1.497 -6.881,-2.949 -9.761,-4.359 -2.879,-1.41 -5.327,-2.848 -7.342,-4.316 -2.016,-1.467 -3.571,-3.021 -4.665,-4.661 -1.094,-1.64 -1.641,-3.495 -1.641,-5.567 0,-1.899 0.489,-3.61 1.468,-5.135 0.979,-1.525 2.362,-2.834 4.147,-3.927 1.785,-1.094 3.973,-1.942 6.565,-2.547 2.591,-0.604 5.471,-0.906 8.638,-0.906 2.304,0 4.737,0.173 7.299,0.518 2.563,0.345 5.14,0.877 7.732,1.597 2.591,0.719 5.11,1.625 7.558,2.719 2.447,1.093 4.708,2.359 6.781,3.797 v -25.807 c -4.204,-1.611 -8.797,-2.805 -13.778,-3.582 -4.981,-0.777 -10.697,-1.165 -17.147,-1.165 -6.565,0 -12.784,0.705 -18.658,2.115 -5.874,1.409 -11.043,3.61 -15.506,6.602 -4.463,2.993 -7.99,6.805 -10.582,11.437 -2.591,4.632 -3.887,10.17 -3.887,16.615 0,8.228 2.375,15.248 7.127,21.06 4.751,5.811 11.963,10.731 21.638,14.759 3.801,1.554 7.343,3.078 10.625,4.575 3.283,1.496 6.119,3.049 8.509,4.66 2.39,1.611 4.276,3.366 5.658,5.265 1.382,1.899 2.073,4.057 2.073,6.474 0,1.783 -0.432,3.438 -1.296,4.963 -0.863,1.524 -2.174,2.848 -3.93,3.97 -1.756,1.122 -3.945,1.999 -6.565,2.632 -2.62,0.633 -5.687,0.95 -9.2,0.95 -5.989,0 -11.92,-1.05 -17.794,-3.151 -5.875,-2.1 -11.317,-5.25 -16.327,-9.451 z M 104.482,131.742 H 140 V 109 H 41 v 22.742 H 76.3447 V 233 h 28.1373 z"
       fill="#ffffff"
       id="path835" />
  </g>
</svg>
