<?xml version="1.0" encoding="UTF-8" standalone="no"?>
<!-- Created with Inkscape (http://www.inkscape.org/) -->

<svg
   width="256"
   height="256"
   viewBox="0 0 256 256"
   version="1.1"
   id="svg5"
   xml:space="preserve"
   sodipodi:docname="tic_tac_two.svg"
   inkscape:version="1.2.2 (b0a8486541, 2022-12-01)"
   xmlns:inkscape="http://www.inkscape.org/namespaces/inkscape"
   xmlns:sodipodi="http://sodipodi.sourceforge.net/DTD/sodipodi-0.dtd"
   xmlns="http://www.w3.org/2000/svg"
   xmlns:svg="http://www.w3.org/2000/svg"><sodipodi:namedview
     id="namedview7"
     pagecolor="#ffffff"
     bordercolor="#000000"
     borderopacity="0.25"
     inkscape:showpageshadow="2"
     inkscape:pageopacity="0.0"
     inkscape:pagecheckerboard="true"
     inkscape:deskcolor="#d1d1d1"
     inkscape:document-units="px"
     showgrid="false"
     inkscape:zoom="0.52724989"
     inkscape:cx="181.12854"
     inkscape:cy="-3.7932678"
     inkscape:window-width="1920"
     inkscape:window-height="1003"
     inkscape:window-x="0"
     inkscape:window-y="0"
     inkscape:window-maximized="1"
     inkscape:current-layer="layer1" /><defs
     id="defs2" /><g
     inkscape:label="Layer 1"
     inkscape:groupmode="layer"
     id="layer1"><rect
       style="fill:#3b5c7f;stroke-width:0.967112;fill-opacity:1"
       id="rect501"
       width="11.783"
       height="244.62161"
       x="75.083824"
       y="5.6891956"
       ry="6.171979" /><rect
       style="fill:#3b5c7f;stroke-width:0.967112;fill-opacity:1"
       id="rect503"
       width="11.783"
       height="244.62161"
       x="169.13318"
       y="5.6891956"
       ry="6.171979" /><rect
       style="fill:#3b5c7f;stroke-width:0.944882;fill-opacity:1"
       id="rect505"
       width="11.783"
       height="233.50505"
       x="70.972862"
       y="-247.01097"
       ry="5.8915"
       transform="rotate(90)" /><path
       id="circle511"
       style="fill:#f5382f;fill-opacity:1;stroke-width:0.629147"
       d="m 129.36737,108.01433 a 25.543938,25.543938 0 0 0 -25.54296,25.54492 25.543938,25.543938 0 0 0 25.54296,25.54297 25.543938,25.543938 0 0 0 25.54493,-25.54297 25.543938,25.543938 0 0 0 -25.54493,-25.54492 z m 0,5.26367 a 20.27985,20.27985 0 0 1 20.2793,20.28125 20.27985,20.27985 0 0 1 -20.2793,20.2793 20.27985,20.27985 0 0 1 -20.27929,-20.2793 20.27985,20.27985 0 0 1 20.27929,-20.28125 z" /><rect
       style="fill:#3b5c7f;stroke-width:0.944882;fill-opacity:1"
       id="rect521"
       width="11.783"
       height="233.50505"
       x="176.73163"
       y="-244.75253"
       ry="5.8915"
       transform="rotate(90)" /><g
       id="g1153"
       transform="matrix(1.2406144,0,0,1.2406144,-45.822239,-53.189249)"
       style="fill:#3aa7f9;fill-opacity:1"><rect
         style="fill:#3aa7f9;fill-opacity:1;stroke-width:0.944882"
         id="rect660"
         width="5.0567341"
         height="41.179512"
         x="304.27463"
         y="-15.903353"
         ry="2.528367"
         transform="rotate(45)" /><rect
         style="fill:#3aa7f9;fill-opacity:1;stroke-width:0.944882"
         id="rect1145"
         width="5.0567341"
         height="41.179512"
         x="2.1580362"
         y="286.21323"
         ry="2.528367"
         transform="matrix(-0.70710678,0.70710678,0.70710678,0.70710678,0,0)" /></g><path
       id="path1500"
       style="fill:#f5382f;fill-opacity:1;stroke-width:0.629147"
       d="m 219.2076,108.01433 a 25.543938,25.543938 0 0 0 -25.54296,25.54492 25.543938,25.543938 0 0 0 25.54296,25.54297 25.543938,25.543938 0 0 0 25.54493,-25.54297 25.543938,25.543938 0 0 0 -25.54493,-25.54492 z m 0,5.26367 a 20.27985,20.27985 0 0 1 20.2793,20.28125 20.27985,20.27985 0 0 1 -20.2793,20.2793 20.27985,20.27985 0 0 1 -20.27929,-20.2793 20.27985,20.27985 0 0 1 20.27929,-20.28125 z" /><path
       id="path1502"
       style="fill:#f5382f;fill-opacity:1;stroke-width:0.629147"
       d="m 39.52714,108.01433 a 25.543938,25.543938 0 0 0 -25.54296,25.54492 25.543938,25.543938 0 0 0 25.54296,25.54297 25.543938,25.543938 0 0 0 25.54493,-25.54297 25.543938,25.543938 0 0 0 -25.54493,-25.54492 z m 0,5.26367 a 20.27985,20.27985 0 0 1 20.2793,20.28125 20.27985,20.27985 0 0 1 -20.2793,20.2793 20.27985,20.27985 0 0 1 -20.27929,-20.2793 20.27985,20.27985 0 0 1 20.27929,-20.28125 z" /><g
       id="g1508"
       transform="matrix(1.2406144,0,0,1.2406144,-225.5027,-53.189249)"
       style="fill:#3aa7f9;fill-opacity:1"><rect
         style="fill:#3aa7f9;fill-opacity:1;stroke-width:0.944882"
         id="rect1504"
         width="5.0567341"
         height="41.179512"
         x="304.27463"
         y="-15.903353"
         ry="2.528367"
         transform="rotate(45)" /><rect
         style="fill:#3aa7f9;fill-opacity:1;stroke-width:0.944882"
         id="rect1506"
         width="5.0567341"
         height="41.179512"
         x="2.1580362"
         y="286.21323"
         ry="2.528367"
         transform="matrix(-0.70710678,0.70710678,0.70710678,0.70710678,0,0)" /></g><g
       id="g1514"
       transform="matrix(1.2406144,0,0,1.2406144,-225.5027,-234.77752)"
       style="fill:#3aa7f9;fill-opacity:1"><rect
         style="fill:#3aa7f9;fill-opacity:1;stroke-width:0.944882"
         id="rect1510"
         width="5.0567341"
         height="41.179512"
         x="304.27463"
         y="-15.903353"
         ry="2.528367"
         transform="rotate(45)" /><rect
         style="fill:#3aa7f9;fill-opacity:1;stroke-width:0.944882"
         id="rect1512"
         width="5.0567341"
         height="41.179512"
         x="2.1580362"
         y="286.21323"
         ry="2.528367"
         transform="matrix(-0.70710678,0.70710678,0.70710678,0.70710678,0,0)" /></g><g
       id="g1536"
       transform="matrix(1.2406144,0,0,1.2406144,-137.03082,-234.77752)"
       style="fill:#3aa7f9;fill-opacity:1"><rect
         style="fill:#3aa7f9;fill-opacity:1;stroke-width:0.944882"
         id="rect1532"
         width="5.0567341"
         height="41.179512"
         x="304.27463"
         y="-15.903353"
         ry="2.528367"
         transform="rotate(45)" /><rect
         style="fill:#3aa7f9;fill-opacity:1;stroke-width:0.944882"
         id="rect1534"
         width="5.0567341"
         height="41.179512"
         x="2.1580362"
         y="286.21323"
         ry="2.528367"
         transform="matrix(-0.70710678,0.70710678,0.70710678,0.70710678,0,0)" /></g><path
       id="path1538"
       style="fill:#f5382f;fill-opacity:1;stroke-width:0.629147"
       d="M 219.2076,12.93163 A 25.543938,25.543938 0 0 0 193.66464,38.47655 25.543938,25.543938 0 0 0 219.2076,64.01952 25.543938,25.543938 0 0 0 244.75253,38.47655 25.543938,25.543938 0 0 0 219.2076,12.93163 Z m 0,5.26367 a 20.27985,20.27985 0 0 1 20.2793,20.28125 20.27985,20.27985 0 0 1 -20.2793,20.2793 20.27985,20.27985 0 0 1 -20.27929,-20.2793 20.27985,20.27985 0 0 1 20.27929,-20.28125 z" /><path
       id="path1540"
       style="fill:#f5382f;fill-opacity:1;stroke-width:0.629147"
       d="m 129.36737,194.51989 a 25.543938,25.543938 0 0 0 -25.54296,25.54492 25.543938,25.543938 0 0 0 25.54296,25.54297 25.543938,25.543938 0 0 0 25.54493,-25.54297 25.543938,25.543938 0 0 0 -25.54493,-25.54492 z m 0,5.26367 a 20.27985,20.27985 0 0 1 20.2793,20.28125 20.27985,20.27985 0 0 1 -20.2793,20.2793 20.27985,20.27985 0 0 1 -20.27929,-20.2793 20.27985,20.27985 0 0 1 20.27929,-20.28125 z" /></g></svg>
