<?xml version="1.0" encoding="UTF-8" standalone="no"?>
<svg
   width="256px"
   height="256px"
   viewBox="0 0 256 256"
   version="1.1"
   preserveAspectRatio="xMidYMid"
   id="svg42"
   sodipodi:docname="cypress_and_playwright_icon.svg"
   inkscape:version="1.1.2 (0a00cf5339, 2022-02-04)"
   xmlns:inkscape="http://www.inkscape.org/namespaces/inkscape"
   xmlns:sodipodi="http://sodipodi.sourceforge.net/DTD/sodipodi-0.dtd"
   xmlns="http://www.w3.org/2000/svg"
   xmlns:svg="http://www.w3.org/2000/svg"
   xmlns:rdf="http://www.w3.org/1999/02/22-rdf-syntax-ns#"
   xmlns:cc="http://creativecommons.org/ns#"
   xmlns:dc="http://purl.org/dc/elements/1.1/">
  <sodipodi:namedview
     id="namedview44"
     pagecolor="#ffffff"
     bordercolor="#111111"
     borderopacity="1"
     inkscape:pageshadow="0"
     inkscape:pageopacity="0"
     inkscape:pagecheckerboard="1"
     showgrid="false"
     inkscape:snap-center="true"
     inkscape:snap-object-midpoints="true"
     inkscape:snap-midpoints="true"
     inkscape:snap-smooth-nodes="true"
     inkscape:snap-intersection-paths="true"
     inkscape:object-paths="false"
     inkscape:snap-bbox="false"
     inkscape:bbox-nodes="true"
     inkscape:snap-bbox-edge-midpoints="false"
     inkscape:zoom="1.1490485"
     inkscape:cx="60.049685"
     inkscape:cy="153.17021"
     inkscape:window-width="1920"
     inkscape:window-height="1008"
     inkscape:window-x="0"
     inkscape:window-y="0"
     inkscape:window-maximized="1"
     inkscape:current-layer="svg42"
     inkscape:snap-nodes="false"
     inkscape:snap-others="false" />
  <title
     id="title2">Cypress</title>
  <defs
     id="defs26">
    <linearGradient
       x1="10.583074"
       y1="243.1014"
       x2="113.96453"
       y2="261.40687"
       id="cypressGradient-1"
       gradientTransform="scale(1.2279787,0.81434637)"
       gradientUnits="userSpaceOnUse">
      <stop
         stop-color="#315C55"
         offset="0%"
         id="stop4" />
      <stop
         stop-color="#09293F"
         offset="100%"
         id="stop6" />
    </linearGradient>
    <linearGradient
       x1="63.139931"
       y1="38.21914"
       x2="58.142524"
       y2="122.80245"
       id="cypressGradient-2"
       gradientTransform="scale(0.75844433,1.3184883)"
       gradientUnits="userSpaceOnUse">
      <stop
         stop-color="#4FB38D"
         offset="0%"
         id="stop9" />
      <stop
         stop-color="#315C55"
         offset="100%"
         id="stop11" />
    </linearGradient>
    <linearGradient
       x1="69.991997"
       y1="56.053464"
       x2="133.7925"
       y2="61.613414"
       id="cypressGradient-3"
       gradientTransform="scale(1.4503287,0.68949886)"
       gradientUnits="userSpaceOnUse">
      <stop
         stop-color="#4FB38D"
         offset="0%"
         id="stop14" />
      <stop
         stop-color="#97DEC0"
         offset="100%"
         id="stop16" />
    </linearGradient>
    <linearGradient
       x1="329.99536"
       y1="81.743664"
       x2="312.15901"
       y2="156.56706"
       id="cypressGradient-4"
       gradientTransform="scale(0.66807652,1.4968345)"
       gradientUnits="userSpaceOnUse">
      <stop
         stop-color="#97DEC0"
         offset="0%"
         id="stop19" />
      <stop
         stop-color="#FFFFF0"
         stop-opacity="0"
         offset="100%"
         id="stop21" />
      <stop
         stop-color="#FFFFF0"
         stop-opacity="0"
         offset="100%"
         id="stop23" />
    </linearGradient>
  </defs>
  <g
     id="g40">
    <path
       d="m 141.6512,223.94347 -4.33514,10.52586 c -0.86128,2.0832 -2.83054,3.4944 -5.04648,3.5904 -1.46313,0.0549 -2.94007,0.096 -4.43083,0.096 C 76.814553,238.12853 31.670328,202.04267 20.483519,152.32 l -17.3684234,3.93333 c 6.2772059,27.89014 22.0318534,53.20374 44.3645344,71.29494 22.592448,18.296 51.052051,28.3968 80.16772,28.45173 0.0409,0 0.25998,0 0.25998,0 1.70928,0 3.40526,-0.0411 5.10072,-0.10933 9.13546,-0.384 17.30012,-6.1264 20.78779,-14.63734 l 5.66161,-13.76 z"
       fill="url(#cypressGradient-1)"
       id="path28"
       style="fill:url(#cypressGradient-1)" />
    <path
       d="M 4.5404735,161.9136 C 1.5317889,150.92213 0,139.5056 0,128.00693 0,75.515733 32.863101,27.52 81.781825,8.59312 l 6.413911,16.65184 C 46.087592,41.54048 17.805987,82.834133 17.805987,128.00693 c 0,9.9088 1.312821,19.7216 3.897578,29.17814 z"
       fill="url(#cypressGradient-2)"
       id="path30"
       style="fill:url(#cypressGradient-2)" />
    <path
       d="M 225.69289,77.2976 C 206.65584,40.636 169.18412,17.85792 127.92434,17.85792 c -14.6195,0 -28.828571,2.823253 -42.203999,8.373867 L 78.896522,9.7443733 C 94.445897,3.2892373 110.93896,0 127.92434,0 c 47.93367,0 91.45034,26.451093 113.56408,69.046933 z"
       fill="url(#cypressGradient-3)"
       id="path32"
       style="fill:url(#cypressGradient-3)" />
    <path
       d="m 89.72744,101.5968 c 10.32531,0 18.73613,5.5232 23.05744,15.15787 l 0.34185,0.75413 17.34106,-5.9072 -0.3695,-0.89067 C 123.38346,94.3056 107.91649,84.1088 89.72744,84.1088 c -12.786884,0 -23.18078,4.112 -31.769168,12.554133 -8.533575,8.387737 -12.85499,18.940797 -12.85499,31.371197 0,12.32107 4.321415,22.8192 12.85499,31.20694 8.588388,8.44266 18.982284,12.55413 31.769168,12.55413 18.18905,0 33.65602,-10.1968 40.37085,-26.58827 l 0.3695,-0.89066 -17.36817,-5.92107 -0.32857,0.78133 c -3.86993,9.4704 -12.48596,15.13067 -23.04361,15.13067 -7.19332,0 -13.265376,-2.5216 -18.079531,-7.4832 -4.868383,-5.02987 -7.329956,-11.34773 -7.329956,-18.776 0,-7.4832 2.406812,-13.67787 7.329956,-18.9408 4.800332,-4.98827 10.886211,-7.5104 18.079531,-7.5104 z"
       fill="#09293f"
       id="path34" />
    <polygon
       fill="#09293f"
       points="156.26007,235.27787 217.56917,85.7264 198.34073,85.7264 173.62877,148.45493 148.75201,85.7264 128.4023,85.7264 163.28964,171.34293 138.46763,231.728 "
       id="polygon36" />
    <path
       d="M 241.48842,69.046933 C 250.49143,86.585413 256,107.18515 256,128.2708 c 0,49.19995 -27.6712,91.91656 -68.25325,113.34297 l -8.76786,-15.5478 c 35.19098,-18.35197 59.22722,-55.25774 59.22722,-97.79517 0,-18.45886 -4.51342,-35.691234 -12.51322,-50.9732 0,0 15.79553,-8.250667 15.79553,-8.250667 z"
       fill="url(#cypressGradient-4)"
       id="path38"
       style="fill:url(#cypressGradient-4)" />
  </g>
  <metadata
     id="metadata861">
    <rdf:RDF>
      <cc:Work
         rdf:about="">
        <dc:title>Cypress</dc:title>
      </cc:Work>
    </rdf:RDF>
  </metadata>
</svg>
