<?xml version="1.0" encoding="UTF-8" standalone="no"?>
<!-- Created with Inkscape (http://www.inkscape.org/) -->

<svg
   width="255"
   height="255"
   viewBox="0 0 67.468748 67.468752"
   version="1.1"
   id="svg842"
   inkscape:version="1.1.2 (0a00cf5339, 2022-02-04)"
   sodipodi:docname="electric_plug.svg"
   xmlns:inkscape="http://www.inkscape.org/namespaces/inkscape"
   xmlns:sodipodi="http://sodipodi.sourceforge.net/DTD/sodipodi-0.dtd"
   xmlns="http://www.w3.org/2000/svg"
   xmlns:svg="http://www.w3.org/2000/svg">
  <sodipodi:namedview
     id="namedview844"
     pagecolor="#ffffff"
     bordercolor="#666666"
     borderopacity="1.0"
     inkscape:pageshadow="2"
     inkscape:pageopacity="0.0"
     inkscape:pagecheckerboard="0"
     inkscape:document-units="px"
     showgrid="false"
     units="px"
     inkscape:zoom="1.0969212"
     inkscape:cx="-146.77445"
     inkscape:cy="95.722466"
     inkscape:window-width="1920"
     inkscape:window-height="1008"
     inkscape:window-x="0"
     inkscape:window-y="0"
     inkscape:window-maximized="1"
     inkscape:current-layer="layer1"
     inkscape:snap-bbox="true"
     inkscape:bbox-nodes="true"
     inkscape:snap-bbox-edge-midpoints="true"
     inkscape:snap-midpoints="true"
     inkscape:snap-bbox-midpoints="true" />
  <defs
     id="defs839" />
  <g
     inkscape:label="Layer 1"
     inkscape:groupmode="layer"
     id="layer1">
    <rect
       style="fill:#00c77d;stroke-width:0.422744;stroke:none;fill-opacity:1"
       id="rect2420"
       width="7.9375"
       height="16.589071"
       x="29.765625"
       y="50.879162" />
    <rect
       style="fill:#00c77d;stroke:none;stroke-width:0.369886;fill-opacity:1"
       id="rect1404"
       width="7.9375"
       height="12.7"
       x="16.867188"
       y="3.7041667" />
    <path
       style="fill:#00c77d;stroke:none;stroke-width:0.619026;fill-opacity:1"
       id="path1804"
       sodipodi:type="arc"
       sodipodi:cx="20.835938"
       sodipodi:cy="-3.96875"
       sodipodi:rx="3.96875"
       sodipodi:ry="3.96875"
       sodipodi:start="0"
       sodipodi:end="3.1415927"
       sodipodi:arc-type="slice"
       transform="scale(1,-1)"
       d="m 24.804687,-3.96875 a 3.96875,3.96875 0 0 1 -1.984375,3.43703835 3.96875,3.96875 0 0 1 -3.96875,-9e-8 A 3.96875,3.96875 0 0 1 16.867187,-3.96875 h 3.96875 z" />
    <path
       style="fill:#00c77d;stroke:none;fill-opacity:1"
       id="path2236"
       sodipodi:type="arc"
       sodipodi:cx="33.734375"
       sodipodi:cy="30.891994"
       sodipodi:rx="21.560871"
       sodipodi:ry="21.560871"
       sodipodi:start="0"
       sodipodi:end="3.1415927"
       sodipodi:arc-type="slice"
       d="m 55.295246,30.891994 a 21.560871,21.560871 0 0 1 -10.780435,18.672263 21.560871,21.560871 0 0 1 -21.560872,0 21.560871,21.560871 0 0 1 -10.780435,-18.672263 h 21.560871 z" />
    <rect
       style="fill:#00c77d;stroke:none;stroke-width:1.0656;fill-opacity:1"
       id="rect866"
       width="50.799999"
       height="7.9375"
       x="8.3343754"
       y="23.21904"
       ry="2.3657753" />
    <rect
       style="fill:#00c77d;stroke:none;stroke-width:0.369886;fill-opacity:1"
       id="rect2508"
       width="7.9375"
       height="12.7"
       x="42.167969"
       y="3.7041667" />
    <path
       style="fill:#00c77d;stroke:none;stroke-width:0.619026;fill-opacity:1"
       id="path2510"
       sodipodi:type="arc"
       sodipodi:cx="46.136719"
       sodipodi:cy="-3.96875"
       sodipodi:rx="3.96875"
       sodipodi:ry="3.96875"
       sodipodi:start="0"
       sodipodi:end="3.1415927"
       sodipodi:arc-type="slice"
       transform="scale(1,-1)"
       d="m 50.105469,-3.96875 a 3.96875,3.96875 0 0 1 -1.984375,3.43703835 3.96875,3.96875 0 0 1 -3.96875,-9e-8 A 3.96875,3.96875 0 0 1 42.167969,-3.96875 h 3.96875 z" />
  </g>
</svg>
