<?xml version="1.0" encoding="UTF-8" standalone="no"?>
<!-- Created with Inkscape (http://www.inkscape.org/) -->

<svg
   width="255"
   height="255"
   viewBox="0 0 67.468748 67.468752"
   version="1.1"
   id="svg8654"
   inkscape:version="1.1.2 (0a00cf5339, 2022-02-04)"
   sodipodi:docname="robot_head_icon.svg"
   xmlns:inkscape="http://www.inkscape.org/namespaces/inkscape"
   xmlns:sodipodi="http://sodipodi.sourceforge.net/DTD/sodipodi-0.dtd"
   xmlns="http://www.w3.org/2000/svg"
   xmlns:svg="http://www.w3.org/2000/svg">
  <sodipodi:namedview
     id="namedview8656"
     pagecolor="#ffffff"
     bordercolor="#666666"
     borderopacity="1.0"
     inkscape:pageshadow="2"
     inkscape:pageopacity="0.0"
     inkscape:pagecheckerboard="0"
     inkscape:document-units="px"
     showgrid="false"
     units="px"
     inkscape:snap-center="true"
     inkscape:snap-object-midpoints="true"
     inkscape:snap-to-guides="true"
     inkscape:snap-bbox="true"
     inkscape:snap-bbox-edge-midpoints="true"
     inkscape:bbox-nodes="true"
     inkscape:snap-page="true"
     inkscape:zoom="16"
     inkscape:cx="124.21875"
     inkscape:cy="44.875"
     inkscape:window-width="1553"
     inkscape:window-height="748"
     inkscape:window-x="24"
     inkscape:window-y="208"
     inkscape:window-maximized="0"
     inkscape:current-layer="layer1" />
  <defs
     id="defs8651" />
  <g
     inkscape:label="Layer 1"
     inkscape:groupmode="layer"
     id="layer1">
    <g
       id="g7155"
       transform="matrix(0.96453461,0,0,0.96453461,-59.63303,8.2064643)">
      <rect
         style="fill:#00c77d;fill-opacity:1;stroke-width:0.264583"
         id="rect5975"
         width="5.1049285"
         height="20.458731"
         x="124.11784"
         y="20.63912" />
      <rect
         style="fill:#00c77d;fill-opacity:1;stroke-width:0.264583"
         id="rect6930"
         width="5.1049285"
         height="20.458731"
         x="126.67031"
         y="20.63912"
         ry="2.5524642"
         rx="2.5524642" />
    </g>
    <g
       id="g7161"
       transform="matrix(-0.96453461,0,0,0.96453461,127.10178,8.2064643)">
      <rect
         style="fill:#00c77d;fill-opacity:1;stroke-width:0.264583"
         id="rect7157"
         width="5.1049285"
         height="20.458731"
         x="124.11784"
         y="20.63912" />
      <rect
         style="fill:#00c77d;fill-opacity:1;stroke-width:0.264583"
         id="rect7159"
         width="5.1049285"
         height="20.458731"
         x="126.67031"
         y="20.63912"
         ry="2.5524642"
         rx="2.5524642" />
    </g>
    <path
       id="rect853"
       style="fill:#00c77d;stroke-width:0.964532"
       d="M 77.380859 61.5625 C 59.727104 61.5625 45.513672 75.773979 45.513672 93.427734 L 45.513672 193.66602 C 45.513672 211.31978 59.727104 225.5332 77.380859 225.5332 L 177.61914 225.5332 C 195.2729 225.5332 209.48633 211.31978 209.48633 193.66602 L 209.48633 93.427734 C 209.48633 75.773979 195.2729 61.5625 177.61914 61.5625 L 77.380859 61.5625 z M 98.193359 99.566406 A 18.834373 18.834373 0 0 1 117.02734 118.40039 A 18.834373 18.834373 0 0 1 98.193359 137.23438 A 18.834373 18.834373 0 0 1 79.359375 118.40039 A 18.834373 18.834373 0 0 1 98.193359 99.566406 z M 162.80664 99.566406 A 18.834373 18.834373 0 0 1 181.64062 118.40039 A 18.834373 18.834373 0 0 1 162.80664 137.23438 A 18.834373 18.834373 0 0 1 143.9707 118.40039 A 18.834373 18.834373 0 0 1 162.80664 99.566406 z M 71.039062 174.89453 L 97.837891 174.89453 L 97.837891 190.80273 L 71.039062 190.80273 L 71.039062 174.89453 z M 107.25391 174.89453 L 154.16406 174.89453 L 154.16406 190.80273 L 107.25391 190.80273 L 107.25391 174.89453 z M 162.87109 174.89453 L 189.66992 174.89453 L 189.66992 190.80273 L 162.87109 190.80273 L 162.87109 174.89453 z "
       transform="scale(0.26458333)" />
    <rect
       style="fill:#00c77d;fill-opacity:1;stroke-width:0.255199"
       id="rect1551"
       width="6.4794621"
       height="6.3709445"
       x="30.419273"
       y="10.606051" />
    <path
       style="fill:#00c77d;fill-opacity:1"
       id="path4566"
       sodipodi:type="arc"
       sodipodi:cx="33.659004"
       sodipodi:cy="-10.870531"
       sodipodi:rx="3.2397304"
       sodipodi:ry="2.8094707"
       sodipodi:start="0"
       sodipodi:end="3.1415927"
       sodipodi:arc-type="slice"
       transform="scale(1,-1)"
       d="m 36.898735,-10.870531 a 3.2397304,2.8094707 0 0 1 -1.619866,2.4330729 3.2397304,2.8094707 0 0 1 -3.23973,-10e-8 3.2397304,2.8094707 0 0 1 -1.619865,-2.4330728 h 3.23973 z" />
  </g>
</svg>
